<?xml version="1.0" encoding="utf-8"?>
<!-- Generator: Adobe Illustrator 18.0.0, SVG Export Plug-In . SVG Version: 6.00 Build 0)  -->
<!DOCTYPE svg PUBLIC "-//W3C//DTD SVG 1.1//EN" "http://www.w3.org/Graphics/SVG/1.1/DTD/svg11.dtd">
<svg version="1.1" id="Layer_1" xmlns="http://www.w3.org/2000/svg" xmlns:xlink="http://www.w3.org/1999/xlink" x="0px" y="0px"
	 viewBox="0 0 80 80" enable-background="new 0 0 80 80" xml:space="preserve">
<circle fill="none" stroke="#FFE195" stroke-width="6" stroke-miterlimit="10" cx="40" cy="40" r="36.4"/>
<path fill="#FFE195" d="M41.6,25.2h-3.3c-1.4,0-2.5-1.1-2.5-2.5v-3.3c0-1.4,1.1-2.5,2.5-2.5h3.3c1.4,0,2.5,1.1,2.5,2.5v3.3
	C44.1,24.1,43,25.2,41.6,25.2z"/>
<path fill="#FFE195" d="M41.6,63.1h-3.3c-1.4,0-2.5-1.1-2.5-2.5v-3.3c0-1.4,1.1-2.5,2.5-2.5h3.3c1.4,0,2.5,1.1,2.5,2.5v3.3
	C44.1,62,43,63.1,41.6,63.1z"/>
<path fill="#FFE195" d="M54.8,41.6v-3.3c0-1.4,1.1-2.5,2.5-2.5h3.3c1.4,0,2.5,1.1,2.5,2.5v3.3c0,1.4-1.1,2.5-2.5,2.5h-3.3
	C55.9,44.1,54.8,43,54.8,41.6z"/>
<path fill="#FFE195" d="M16.9,41.6v-3.3c0-1.4,1.1-2.5,2.5-2.5h3.3c1.4,0,2.5,1.1,2.5,2.5v3.3c0,1.4-1.1,2.5-2.5,2.5h-3.3
	C18,44.1,16.9,43,16.9,41.6z"/>
<path fill="#FFE195" d="M51.6,30.7l-2.3-2.3c-1-1-1-2.6,0-3.5l2.3-2.3c1-1,2.6-1,3.5,0l2.3,2.3c1,1,1,2.6,0,3.5l-2.3,2.3
	C54.2,31.7,52.6,31.7,51.6,30.7z"/>
<path fill="#FFE195" d="M24.8,57.5l-2.3-2.3c-1-1-1-2.6,0-3.5l2.3-2.3c1-1,2.6-1,3.5,0l2.3,2.3c1,1,1,2.6,0,3.5l-2.3,2.3
	C27.4,58.5,25.8,58.5,24.8,57.5z"/>
<path fill="#FFE195" d="M49.3,51.6l2.3-2.3c1-1,2.6-1,3.5,0l2.3,2.3c1,1,1,2.6,0,3.5l-2.3,2.3c-1,1-2.6,1-3.5,0l-2.3-2.3
	C48.3,54.2,48.3,52.6,49.3,51.6z"/>
<path fill="#FFE195" d="M22.5,24.8l2.3-2.3c1-1,2.6-1,3.5,0l2.3,2.3c1,1,1,2.6,0,3.5l-2.3,2.3c-1,1-2.6,1-3.5,0l-2.3-2.3
	C21.5,27.4,21.5,25.8,22.5,24.8z"/>
</svg>
