<?xml version="1.0" encoding="utf-8"?>
<!-- Generator: Adobe Illustrator 18.0.0, SVG Export Plug-In . SVG Version: 6.00 Build 0)  -->
<!DOCTYPE svg PUBLIC "-//W3C//DTD SVG 1.1//EN" "http://www.w3.org/Graphics/SVG/1.1/DTD/svg11.dtd">
<svg version="1.1" id="Layer_1" xmlns="http://www.w3.org/2000/svg" xmlns:xlink="http://www.w3.org/1999/xlink" x="0px" y="0px"
	 viewBox="0 0 80 80" enable-background="new 0 0 80 80" xml:space="preserve">
<circle fill="none" stroke="#FFE195" stroke-width="6" stroke-miterlimit="10" cx="40" cy="40" r="36.4"/>
<path fill="#FFE195" d="M35.1,3.8c-8.2,0.9-15.6,4.5-21.2,9.9c1.2,1.9,3.2,3.4,6,3.9c9.4,1.6,9.7-0.8,11.7,4.9s14.8,3.3,13.4-4.4
	C44.2,13.9,40.5,7.8,35.1,3.8z"/>
<path fill="#FFE195" d="M42.5,41.7c-6.6,2.2-7.3-9.4-17.5-7.1c-10.2,2.3-4.7,11.1-11.6,15.2c-2.8,1.5-5,3.1-6.6,4.9
	c5.3,12,16.9,20.6,30.6,21.6c-1.6-7.5,2.5-10.8,11.6-15.1C59.1,56.2,53.4,37.9,42.5,41.7z"/>
<path fill="#FFE195" d="M55.9,30.8c0.9,7.1,9.6,5.9,6.6,16.1c-2.9,10.2,14.8,14.2,13.3-4.1c-1.6-18.3-0.4-20.3-10.5-27.9
	S55.3,25.6,55.9,30.8z"/>
</svg>
